HIERARCHY
ROOT Hips
{
	OFFSET 0.000000 0.000000 0.000000
	CHANNELS 6 Xposition Yposition Zposition Zrotation Yrotation Xrotation 
	JOINT LHipJoint
	{
		OFFSET 0.000000 0.000000 0.000000
		CHANNELS 3 Zrotation Yrotation Xrotation
		JOINT LeftUpLeg
		{
			OFFSET 1.363060 -1.794630 0.839290
			CHANNELS 3 Zrotation Yrotation Xrotation
			JOINT LeftLeg
			{
				OFFSET 2.448110 -6.726130 0.000000
				CHANNELS 3 Zrotation Yrotation Xrotation
				JOINT LeftFoot
				{
					OFFSET 2.562200 -7.039590 0.000000
					CHANNELS 3 Zrotation Yrotation Xrotation
					JOINT LeftToeBase
					{
						OFFSET 0.157640 -0.433110 2.322550
						CHANNELS 3 Zrotation Yrotation Xrotation
						End Site
						{
							OFFSET 0.000000 0.000000 0.000000
						}
					}
				}
			}
		}
	}
	JOINT RHipJoint
	{
		OFFSET 0.000000 0.000000 0.000000
		CHANNELS 3 Zrotation Yrotation Xrotation
		JOINT RightUpLeg
		{
			OFFSET -1.305520 -1.794630 0.839290
			CHANNELS 3 Zrotation Yrotation Xrotation
			JOINT RightLeg
			{
				OFFSET -2.542530 -6.985550 0.000000
				CHANNELS 3 Zrotation Yrotation Xrotation
				JOINT RightFoot
				{
					OFFSET -2.568260 -7.056230 0.000000
					CHANNELS 3 Zrotation Yrotation Xrotation
					JOINT RightToeBase
					{
						OFFSET -0.164730 -0.452590 2.363150
						CHANNELS 3 Zrotation Yrotation Xrotation
						End Site
						{
							OFFSET 0.000000 0.000000 0.000000
						}
					}
				}
			}
		}
	}
	JOINT LowerBack
	{
		OFFSET 0.000000 0.000000 0.000000
		CHANNELS 3 Zrotation Yrotation Xrotation
		JOINT Spine
		{
			OFFSET 0.028270 2.035590 -0.193380
			CHANNELS 3 Zrotation Yrotation Xrotation
			JOINT Spine1
			{
				OFFSET 0.056720 2.048850 -0.042750
				CHANNELS 3 Zrotation Yrotation Xrotation
				JOINT Neck
				{
					OFFSET 0.000000 0.000000 0.000000
					CHANNELS 3 Zrotation Yrotation Xrotation
					JOINT Neck1
					{
						OFFSET -0.054170 1.746240 0.172020
						CHANNELS 3 Zrotation Yrotation Xrotation
						JOINT Head
						{
							OFFSET 0.104070 1.761360 -0.123970
							CHANNELS 3 Zrotation Yrotation Xrotation
							End Site
							{
								OFFSET 0.000000 0.000000 0.000000
							}
						}
					}
				}
				JOINT LeftShoulder
				{
					OFFSET 0.000000 0.000000 0.000000
					CHANNELS 3 Zrotation Yrotation Xrotation
					JOINT LeftArm
					{
						OFFSET 3.362410 1.200890 -0.311210
						CHANNELS 3 Zrotation Yrotation Xrotation
						JOINT LeftForeArm
						{
							OFFSET 4.983000 -0.000000 -0.000000
							CHANNELS 3 Zrotation Yrotation Xrotation
							JOINT LeftHand
							{
								OFFSET 3.483560 -0.000000 -0.000000
								CHANNELS 3 Zrotation Yrotation Xrotation
								JOINT LeftFingerBase
								{
									OFFSET 0.000000 0.000000 0.000000
									CHANNELS 3 Zrotation Yrotation Xrotation
									JOINT LeftHandIndex1
									{
										OFFSET 0.715260 -0.000000 -0.000000
										CHANNELS 3 Zrotation Yrotation Xrotation
										End Site
										{
											OFFSET 0.000000 0.000000 0.000000
										}
									}
								}
								JOINT LThumb
								{
									OFFSET 0.000000 0.000000 0.000000
									CHANNELS 3 Zrotation Yrotation Xrotation
									End Site
									{
										OFFSET 0.000000 0.000000 0.000000
									}
								}
							}
						}
					}
				}
				JOINT RightShoulder
				{
					OFFSET 0.000000 0.000000 0.000000
					CHANNELS 3 Zrotation Yrotation Xrotation
					JOINT RightArm
					{
						OFFSET -3.136600 1.374050 -0.404650
						CHANNELS 3 Zrotation Yrotation Xrotation
						JOINT RightForeArm
						{
							OFFSET -5.241900 -0.000000 -0.000000
							CHANNELS 3 Zrotation Yrotation Xrotation
							JOINT RightHand
							{
								OFFSET -3.444170 -0.000000 -0.000000
								CHANNELS 3 Zrotation Yrotation Xrotation
								JOINT RightFingerBase
								{
									OFFSET 0.000000 0.000000 0.000000
									CHANNELS 3 Zrotation Yrotation Xrotation
									JOINT RightHandIndex1
									{
										OFFSET -0.622530 -0.000000 -0.000000
										CHANNELS 3 Zrotation Yrotation Xrotation
										End Site
										{
											OFFSET 0.000000 0.000000 0.000000
										}
									}
								}
								JOINT RThumb
								{
									OFFSET 0.000000 0.000000 0.000000
									CHANNELS 3 Zrotation Yrotation Xrotation
									End Site
									{
										OFFSET 0.000000 0.000000 0.000000
									}
								}
							}
						}
					}
				}
			}
		}
	}
}
MOTION
Frames: 5
Frame Time: 0.008333
4.354734 17.187833 -0.141039 -174.669868 -76.387594 -173.303058 -11.516241 2.017337 0.993785 -5.285868 20.021173 -18.038138 -2.749405 -1.202402 2.474743 0.796641 5.508743 -2.414692 0.561400 -0.000000 -41.408900 8.296606 -2.224187 4.753549 9.207870 5.242414 -19.066332 2.808082 0.750585 9.999326 -0.602028 -2.049455 -4.650008 -0.498800 0.000001 -57.027900 2.450527 -0.697814 -7.504621 -0.424038 -1.125508 -4.709519 -7.388153 -0.914544 -3.413077 8.159263 -2.034227 3.899145 -4.227158 -0.424011 3.165940 0.000000 0.000000 0.000000 9.625435 3.686275 -3.328963 -76.765200 -44.033751 11.978799 -179.259975 -59.858627 179.901451 5.652605 -5.344138 -0.321377 -0.069914 1.159790 -0.000000 0.000000 0.000000 0.000000 0.000000 0.000000 0.000000 6.923605 -0.675937 -5.086395 81.706079 41.998570 15.040115 -177.801236 62.430488 179.774364 -12.936985 15.968430 -1.963483 0.048828 -1.126608 -0.000000 0.000000 0.000000 0.000000 0.000000 0.000000 0.000000 
4.356563 17.183855 -0.175690 -174.970827 -75.900417 -173.135783 -11.531256 2.011741 0.915022 -5.133980 20.280456 -17.999995 -2.729969 -1.157720 2.935497 0.842914 5.818272 -2.564203 0.565800 -0.000000 -41.432800 8.269764 -2.212018 4.813167 9.222311 5.730704 -19.118525 2.780968 0.693267 10.545419 -0.617346 -2.037597 -4.908849 -0.474800 -0.000000 -56.749001 2.464777 -0.711639 -7.492467 -0.409909 -1.137312 -4.687406 -7.325843 -0.922116 -3.327994 8.036384 -2.218179 3.709493 -4.246568 -0.423499 3.113663 0.000000 0.000000 0.000000 9.658197 3.828367 -3.244881 -76.277178 -43.260802 11.346229 -179.219344 -59.707596 179.902318 5.659009 -5.301503 -0.319645 -0.075396 1.154853 -0.000000 0.000000 0.000000 0.000000 0.000000 0.000000 0.000000 6.904724 -0.770011 -5.081057 81.862647 41.860242 15.556022 -177.891680 63.164361 179.776715 -12.923994 15.969724 -1.961018 0.050495 -1.119463 -0.000000 0.000000 0.000000 0.000000 0.000000 0.000000 0.000000 
4.358764 17.179595 -0.210700 -175.249700 -75.414593 -173.004922 -11.545244 2.005736 0.834635 -4.966322 20.501341 -17.957680 -2.702590 -1.105393 3.468511 0.897310 6.185756 -2.709986 0.574099 -0.000000 -41.540200 8.243537 -2.196703 4.867732 9.238303 6.229795 -19.142026 2.751977 0.635282 11.089230 -0.635892 -2.043683 -5.169939 -0.452000 -0.000001 -56.460600 2.489718 -0.727474 -7.468928 -0.392176 -1.151419 -4.664381 -7.255973 -0.932405 -3.246820 7.899251 -2.402517 3.513073 -4.265958 -0.422953 3.059610 0.000000 0.000000 0.000000 9.684324 3.963667 -3.155298 -75.788427 -42.394714 10.688327 -179.176695 -59.564633 179.903495 5.653494 -5.243690 -0.316309 -0.080628 1.148691 -0.000000 0.000000 0.000000 0.000000 0.000000 0.000000 0.000000 6.877157 -0.853203 -5.070298 82.036687 41.677050 16.088974 -177.993034 63.983132 179.780269 -12.820625 15.958731 -1.942756 0.049763 -1.111098 -0.000000 0.000000 0.000000 0.000000 0.000000 0.000000 0.000000 
4.361424 17.174951 -0.245867 -175.482157 -74.925374 -172.936207 -11.558917 1.997505 0.748273 -4.775947 20.704176 -17.918951 -2.669457 -1.043990 4.091190 0.956489 6.582621 -2.861040 0.582200 0.000000 -41.740200 8.216260 -2.178243 4.917747 9.264263 6.748162 -19.131423 2.721865 0.576730 11.630085 -0.658515 -2.072442 -5.433903 -0.430600 0.000000 -56.151600 2.532148 -0.743516 -7.428992 -0.369849 -1.166616 -4.639879 -7.179299 -0.944242 -3.170450 7.748538 -2.587001 3.309903 -4.285304 -0.422362 3.003771 0.000000 0.000000 0.000000 9.698557 4.090698 -3.059555 -75.296916 -41.437303 10.006316 -179.132383 -59.439146 179.905024 5.634000 -5.166485 -0.311269 -0.085473 1.141015 -0.000000 0.000000 0.000000 0.000000 0.000000 0.000000 0.000000 6.843525 -0.923684 -5.052895 82.223798 41.449560 16.635478 -178.104912 64.889737 179.785027 -12.627278 15.934571 -1.908897 0.046730 -1.101401 -0.000000 0.000000 0.000000 0.000000 0.000000 0.000000 0.000000 
4.364502 17.169986 -0.281554 -175.719022 -74.434413 -172.869491 -11.570171 1.988313 0.667423 -4.574190 20.829353 -17.872933 -2.626092 -0.977535 4.772954 1.025913 7.049524 -3.013566 0.594600 0.000000 -42.013700 8.190493 -2.156222 4.962382 9.287663 7.273663 -19.107227 2.690206 0.516862 12.175064 -0.683021 -2.110800 -5.700764 -0.409300 0.000000 -55.867900 2.576815 -0.761305 -7.384004 -0.345721 -1.183453 -4.616090 -7.096574 -0.958565 -3.099579 7.588659 -2.770709 3.100250 -4.304457 -0.421734 2.946265 0.000000 0.000000 0.000000 9.706838 4.203892 -2.959092 -74.804886 -40.379382 9.300665 -179.088980 -59.334508 179.906929 5.597548 -5.071392 -0.304230 -0.089611 1.131720 -0.000000 0.000000 0.000000 0.000000 0.000000 0.000000 0.000000 6.807279 -0.981480 -5.027924 82.426373 41.169791 17.190836 -178.225852 65.878419 179.790827 -12.355929 15.906990 -1.862639 0.041871 -1.090651 -0.000000 0.000000 0.000000 0.000000 0.000000 0.000000 0.000000 
